<svg width="41" height="40" viewBox="0 0 41 40" fill="none" xmlns="http://www.w3.org/2000/svg">
<g clip-path="url(#clip0_16_23)">
<rect x="0.5" y="16.6667" width="23.3333" height="23.3333" fill="#7595FD"/>
<path d="M30.5 27.1667H31V26.6667V25.5H36.6667V32.8333H4.33334V25.5H10V26.6667V27.1667H10.5H13.8333H14.3333V26.6667V25.5H26.6667V26.6667V27.1667H27.1667H30.5ZM28.3333 13.3333V13.8333H28.8333H33.8333C35.3905 13.8333 36.6667 15.1095 36.6667 16.6667V22.8333H31V20V19.5H30.5H27.1667H26.6667V20V22.8333H14.3333V20V19.5H13.8333H10.5H10V20V22.8333H4.33334V16.6667C4.33334 15.1095 5.60949 13.8333 7.16668 13.8333H12.1667H12.6667V13.3333V9.99999C12.6667 8.4428 13.9428 7.16666 15.5 7.16666H25.5C27.0572 7.16666 28.3333 8.4428 28.3333 9.99999V13.3333ZM25.5 13.8333H26V13.3333V9.99999V9.49999H25.5H15.5H15V9.99999V13.3333V13.8333H15.5H25.5Z" fill="white" stroke="black"/>
</g>
<defs>
<clipPath id="clip0_16_23">
<rect width="40" height="40" fill="white" transform="translate(0.5)"/>
</clipPath>
</defs>
</svg>
