<svg width="32" height="32" viewBox="0 0 32 32" fill="none" xmlns="http://www.w3.org/2000/svg">
<path d="M14.3333 6.00002H19.3333L24.8167 0.500016C24.9716 0.343802 25.1559 0.219812 25.359 0.135197C25.5621 0.0505828 25.78 0.00701904 26 0.00701904C26.22 0.00701904 26.4379 0.0505828 26.641 0.135197C26.8441 0.219812 27.0284 0.343802 27.1833 0.500016L31.4833 4.81668C31.7938 5.12895 31.968 5.55137 31.968 5.99168C31.968 6.43199 31.7938 6.85441 31.4833 7.16668L27.6667 11H14.3333V14.3333C14.3333 14.7754 14.1577 15.1993 13.8452 15.5119C13.5326 15.8244 13.1087 16 12.6667 16C12.2246 16 11.8007 15.8244 11.4882 15.5119C11.1756 15.1993 11 14.7754 11 14.3333V9.33335C11 8.44929 11.3512 7.60145 11.9763 6.97633C12.6014 6.3512 13.4493 6.00002 14.3333 6.00002ZM4.33333 14.3333V21L0.516667 24.8167C0.206249 25.129 0.0320129 25.5514 0.0320129 25.9917C0.0320129 26.432 0.206249 26.8544 0.516667 27.1667L4.81667 31.4833C4.97161 31.6396 5.15594 31.7636 5.35904 31.8482C5.56214 31.9328 5.77998 31.9763 6 31.9763C6.22002 31.9763 6.43786 31.9328 6.64096 31.8482C6.84406 31.7636 7.0284 31.6396 7.18333 31.4833L14.3333 24.3333H21C21.442 24.3333 21.866 24.1578 22.1785 23.8452C22.4911 23.5326 22.6667 23.1087 22.6667 22.6667V21H24.3333C24.7754 21 25.1993 20.8244 25.5118 20.5119C25.8244 20.1993 26 19.7754 26 19.3333V17.6667H27.6667C28.1087 17.6667 28.5326 17.4911 28.8452 17.1785C29.1577 16.866 29.3333 16.442 29.3333 16V14.3333H17.6667V16C17.6667 16.8841 17.3155 17.7319 16.6904 18.357C16.0652 18.9822 15.2174 19.3333 14.3333 19.3333H11C10.1159 19.3333 9.2681 18.9822 8.64298 18.357C8.01786 17.7319 7.66667 16.8841 7.66667 16V11L4.33333 14.3333Z" fill="#292E3D"/>
</svg>
