<svg width="46" height="48" viewBox="0 0 46 48" fill="none" xmlns="http://www.w3.org/2000/svg">
<g clip-path="url(#clip0_16_8)" filter="url(#filter0_d_16_8)">
<rect x="4.5" y="16.6667" width="23.3333" height="23.3333" fill="#7595FD"/>
<path d="M37 4.99998C35.8952 5.00086 34.8359 5.44014 34.0547 6.22135C33.2735 7.00256 32.8342 8.06185 32.8333 9.16665C32.8333 9.76165 32.9633 10.3266 33.19 10.8416L29.9317 14.5066C28.8248 13.7426 27.5116 13.3334 26.1667 13.3333C24.9333 13.3333 23.7933 13.6933 22.8017 14.2766L19.0117 10.4883L18.9733 10.5266C19.3 9.86332 19.5 9.12498 19.5 8.33332C19.5 7.34441 19.2068 6.37771 18.6573 5.55546C18.1079 4.73322 17.327 4.09236 16.4134 3.71392C15.4998 3.33548 14.4945 3.23646 13.5245 3.42939C12.5546 3.62231 11.6637 4.09852 10.9645 4.79778C10.2652 5.49704 9.789 6.38796 9.59607 7.35786C9.40315 8.32777 9.50216 9.3331 9.8806 10.2467C10.259 11.1604 10.8999 11.9413 11.7221 12.4907C12.5444 13.0401 13.5111 13.3333 14.5 13.3333C15.2917 13.3333 16.0283 13.1333 16.6933 12.8066L16.655 12.845L20.445 16.6333C19.8327 17.65 19.5062 18.8132 19.5 20C19.5 21.6616 20.1333 23.165 21.1417 24.335L16.8467 28.6283C16.3653 28.4356 15.8518 28.3355 15.3333 28.3333C13.0367 28.3333 11.1667 30.2016 11.1667 32.5C11.1667 34.7983 13.0367 36.6666 15.3333 36.6666C17.63 36.6666 19.5 34.7983 19.5 32.5C19.5 31.965 19.39 31.4566 19.205 30.985L23.935 26.255C24.6367 26.505 25.38 26.6666 26.1667 26.6666C29.8433 26.6666 32.8333 23.6766 32.8333 20C32.8333 18.94 32.5617 17.9516 32.12 17.06L35.6483 13.0883C36.075 13.235 36.525 13.3333 37 13.3333C39.2983 13.3333 41.1667 11.465 41.1667 9.16665C41.1667 6.86832 39.2983 4.99998 37 4.99998ZM26.1667 23.3333C24.3283 23.3333 22.8333 21.8383 22.8333 20C22.8333 18.1616 24.3283 16.6666 26.1667 16.6666C28.005 16.6666 29.5 18.1616 29.5 20C29.5 21.8383 28.005 23.3333 26.1667 23.3333Z" fill="white"/>
</g>
<defs>
<filter id="filter0_d_16_8" x="0.5" y="0" width="48" height="48" filterUnits="userSpaceOnUse" color-interpolation-filters="sRGB">
<feFlood flood-opacity="0" result="BackgroundImageFix"/>
<feColorMatrix in="SourceAlpha" type="matrix" values="0 0 0 0 0 0 0 0 0 0 0 0 0 0 0 0 0 0 127 0" result="hardAlpha"/>
<feOffset dy="4"/>
<feGaussianBlur stdDeviation="2"/>
<feComposite in2="hardAlpha" operator="out"/>
<feColorMatrix type="matrix" values="0 0 0 0 0 0 0 0 0 0 0 0 0 0 0 0 0 0 0.25 0"/>
<feBlend mode="normal" in2="BackgroundImageFix" result="effect1_dropShadow_16_8"/>
<feBlend mode="normal" in="SourceGraphic" in2="effect1_dropShadow_16_8" result="shape"/>
</filter>
<clipPath id="clip0_16_8">
<rect width="40" height="40" fill="white" transform="translate(4.5)"/>
</clipPath>
</defs>
</svg>
